<mxfile host="app.diagrams.net" modified="2022-10-10T01:15:59.950Z" agent="5.0 (Windows NT 10.0; Win64; x64) AppleWebKit/537.36 (KHTML, like Gecko) Chrome/106.0.0.0 Safari/537.36" etag="S5ipnnbSem4Kistbv-GH" version="20.3.6" type="github">
  <diagram id="pB30jLCbTcjCmt46ROhU" name="第 1 页">
    <mxGraphModel dx="1835" dy="762" grid="1" gridSize="10" guides="1" tooltips="1" connect="1" arrows="1" fold="1" page="1" pageScale="1" pageWidth="413" pageHeight="291" math="0" shadow="0">
      <root>
        <mxCell id="0" />
        <mxCell id="1" parent="0" />
        <mxCell id="rh1mHTOg1OglAUI6_zDe-1" value="&lt;font style=&quot;font-size: 18px;&quot;&gt;Message Channel&lt;/font&gt;" style="rounded=0;whiteSpace=wrap;html=1;" vertex="1" parent="1">
          <mxGeometry x="-280" y="270" width="300" height="100" as="geometry" />
        </mxCell>
        <mxCell id="rh1mHTOg1OglAUI6_zDe-5" style="edgeStyle=orthogonalEdgeStyle;rounded=0;orthogonalLoop=1;jettySize=auto;html=1;fontSize=18;exitX=0.5;exitY=1;exitDx=0;exitDy=0;" edge="1" parent="1" source="rh1mHTOg1OglAUI6_zDe-2" target="rh1mHTOg1OglAUI6_zDe-1">
          <mxGeometry relative="1" as="geometry" />
        </mxCell>
        <mxCell id="rh1mHTOg1OglAUI6_zDe-6" style="edgeStyle=orthogonalEdgeStyle;rounded=0;orthogonalLoop=1;jettySize=auto;html=1;fontSize=18;" edge="1" parent="1" source="rh1mHTOg1OglAUI6_zDe-2" target="rh1mHTOg1OglAUI6_zDe-3">
          <mxGeometry relative="1" as="geometry" />
        </mxCell>
        <mxCell id="rh1mHTOg1OglAUI6_zDe-7" style="edgeStyle=orthogonalEdgeStyle;rounded=0;orthogonalLoop=1;jettySize=auto;html=1;fontSize=18;exitX=0.5;exitY=1;exitDx=0;exitDy=0;" edge="1" parent="1" source="rh1mHTOg1OglAUI6_zDe-2" target="rh1mHTOg1OglAUI6_zDe-4">
          <mxGeometry relative="1" as="geometry" />
        </mxCell>
        <mxCell id="rh1mHTOg1OglAUI6_zDe-2" value="Message Template" style="rounded=0;whiteSpace=wrap;html=1;fontSize=18;" vertex="1" parent="1">
          <mxGeometry x="95" y="30" width="210" height="70" as="geometry" />
        </mxCell>
        <mxCell id="rh1mHTOg1OglAUI6_zDe-3" value="&lt;font style=&quot;font-size: 18px;&quot;&gt;Message Channel&lt;/font&gt;" style="rounded=0;whiteSpace=wrap;html=1;" vertex="1" parent="1">
          <mxGeometry x="50" y="270" width="300" height="100" as="geometry" />
        </mxCell>
        <mxCell id="rh1mHTOg1OglAUI6_zDe-4" value="&lt;font style=&quot;font-size: 18px;&quot;&gt;Message Channel&lt;/font&gt;" style="rounded=0;whiteSpace=wrap;html=1;" vertex="1" parent="1">
          <mxGeometry x="390" y="270" width="300" height="100" as="geometry" />
        </mxCell>
      </root>
    </mxGraphModel>
  </diagram>
</mxfile>
